<svg width="640" height="640" viewBox="0 0 64 64" fill="none" xmlns="http://www.w3.org/2000/svg">
  <defs>
    <linearGradient id="learnable-cover" x1="32" y1="10" x2="32" y2="51" gradientUnits="userSpaceOnUse">
      <stop stop-color="#17325F" />
      <stop offset="1" stop-color="#081A3D" />
    </linearGradient>
    <linearGradient id="learnable-page" x1="32" y1="29" x2="32" y2="48" gradientUnits="userSpaceOnUse">
      <stop stop-color="#19D5FF" />
      <stop offset="1" stop-color="#2B63FF" />
    </linearGradient>
    <filter id="learnable-glow" x="1" y="7" width="62" height="50" filterUnits="userSpaceOnUse">
      <feDropShadow dx="0" dy="1.25" stdDeviation="1.5" flood-color="#17C9FF" flood-opacity="0.72" />
      <feDropShadow dx="0" dy="2" stdDeviation="2.6" flood-color="#2550FF" flood-opacity="0.34" />
    </filter>
  </defs>

  <rect width="64" height="64" rx="18" fill="#F8FAFF" />

  <g filter="url(#learnable-glow)">
    <path
      d="M8 45.5C13.8 41.4 19.1 39.5 29 39.5V49.2C21.4 48.6 15.6 48.6 10.1 49.6C9.3 49.7 8.7 49.1 8.8 48.4L8 45.5Z"
      fill="#0D1E47"
      opacity="0.78"
    />
    <path
      d="M56 45.5C50.2 41.4 44.9 39.5 35 39.5V49.2C42.6 48.6 48.4 48.6 53.9 49.6C54.7 49.7 55.3 49.1 55.2 48.4L56 45.5Z"
      fill="#0D1E47"
      opacity="0.78"
    />

    <path d="M11 43.1C15.9 39.1 20.9 37.1 29 37.1V47.2C21.9 46.6 16.5 46.7 11.7 47.7L11 43.1Z" fill="#10295E" />
    <path d="M53 43.1C48.1 39.1 43.1 37.1 35 37.1V47.2C42.1 46.6 47.5 46.7 52.3 47.7L53 43.1Z" fill="#10295E" />

    <path d="M14.2 40.3C18.8 35.7 23.6 33.6 29 33.6V44.7C23.2 44 18.7 44 14.2 44.9V40.3Z" fill="#133474" />
    <path d="M49.8 40.3C45.2 35.7 40.4 33.6 35 33.6V44.7C40.8 44 45.3 44 49.8 44.9V40.3Z" fill="#133474" />

    <path
      d="M29.8 12.6C20.7 12.8 15.5 17.5 13.7 25.1L12.1 41.1C17.3 40.1 22.5 40.1 29.8 40.8V12.6Z"
      fill="url(#learnable-cover)"
      stroke="#25C8FF"
      stroke-width="1.8"
      stroke-linejoin="round"
    />
    <path
      d="M34.2 12.6C43.3 12.8 48.5 17.5 50.3 25.1L51.9 41.1C46.7 40.1 41.5 40.1 34.2 40.8V12.6Z"
      fill="url(#learnable-cover)"
      stroke="#25C8FF"
      stroke-width="1.8"
      stroke-linejoin="round"
    />

    <path d="M15.1 42.9C20.5 42.1 24.2 42.2 29.4 42.8" stroke="url(#learnable-page)" stroke-width="2.2" stroke-linecap="round" />
    <path d="M16.6 46.2C21 45.5 24.5 45.6 29.6 46.2" stroke="url(#learnable-page)" stroke-width="2.2" stroke-linecap="round" opacity="0.94" />
    <path d="M48.9 42.9C43.5 42.1 39.8 42.2 34.6 42.8" stroke="url(#learnable-page)" stroke-width="2.2" stroke-linecap="round" />
    <path d="M47.4 46.2C43 45.5 39.5 45.6 34.4 46.2" stroke="url(#learnable-page)" stroke-width="2.2" stroke-linecap="round" opacity="0.94" />

    <path d="M32 13.5V48.6" stroke="#24D5FF" stroke-width="1.8" stroke-linecap="round" />
    <path
      d="M29.4 47.4L31.2 49.8C31.6 50.4 32.4 50.4 32.8 49.8L34.6 47.4"
      stroke="#264EFF"
      stroke-width="2.2"
      stroke-linecap="round"
      stroke-linejoin="round"
    />
  </g>
</svg>
