<svg width="64" height="64" viewBox="0 0 64 64" fill="none" xmlns="http://www.w3.org/2000/svg">
  <defs>
    <linearGradient id="bg" x1="12" y1="10" x2="53" y2="56" gradientUnits="userSpaceOnUse">
      <stop stop-color="#EAF4FF" />
      <stop offset="1" stop-color="#DDEBFF" />
    </linearGradient>
    <linearGradient id="left" x1="14" y1="21" x2="30" y2="45" gradientUnits="userSpaceOnUse">
      <stop stop-color="#5CA2F4" />
      <stop offset="1" stop-color="#2F63D9" />
    </linearGradient>
    <linearGradient id="right" x1="50" y1="21" x2="34" y2="45" gradientUnits="userSpaceOnUse">
      <stop stop-color="#83E1B0" />
      <stop offset="1" stop-color="#39B978" />
    </linearGradient>
  </defs>

  <path d="M32 44C25.3 40.5 19.7 39.4 13.5 40.4V20.2C19.5 18.8 25.1 19.7 32 24.3V44Z" fill="url(#left)" />
  <path d="M32 44C38.7 40.5 44.3 39.4 50.5 40.4V20.2C44.5 18.8 38.9 19.7 32 24.3V44Z" fill="url(#right)" />
  <path d="M32 41.4C26.2 38.7 21.2 37.7 15.8 38.3" stroke="#F7FBFF" stroke-width="2" stroke-linecap="round" />
  <path d="M32 41.4C37.8 38.7 42.8 37.7 48.2 38.3" stroke="#F5FFF9" stroke-width="2" stroke-linecap="round" />
  <path d="M13.5 20.2C19.5 18.8 25.1 19.7 32 24.3" stroke="#24498D" stroke-width="2.2" stroke-linecap="round" stroke-linejoin="round" />
  <path d="M50.5 20.2C44.5 18.8 38.9 19.7 32 24.3" stroke="#1D7F58" stroke-width="2.2" stroke-linecap="round" stroke-linejoin="round" />
  <path d="M32 18.5C29.5 18.5 27.5 20.5 27.5 23V28.7C27.5 32 25.7 34.8 22.7 36.2" stroke="#FFF6C8" stroke-width="4" stroke-linecap="round" stroke-linejoin="round" />
  <path d="M32 18.5C34.5 18.5 36.5 20.5 36.5 23V28.7C36.5 32 38.3 34.8 41.3 36.2" stroke="#FFF6C8" stroke-width="4" stroke-linecap="round" stroke-linejoin="round" />
  <path d="M32 18.7V43.2" stroke="#FFFFFF" stroke-width="1.7" stroke-linecap="round" />
  <path d="M32 13L33.1 15.5L35.6 16.6L33.1 17.7L32 20.2L30.9 17.7L28.4 16.6L30.9 15.5L32 13Z" fill="#FFD93D" />
  <path d="M13.5 40.4C19.7 39.4 25.3 40.5 32 44C38.7 40.5 44.3 39.4 50.5 40.4" stroke="#17315D" stroke-width="2.2" stroke-linecap="round" stroke-linejoin="round" />
</svg>
